<svg width="660" height="200" viewBox="0 0 660 200" fill="none" xmlns="http://www.w3.org/2000/svg">
<path d="M88.544 136.392C78.464 136.392 69.632 134.184 62.048 129.768C54.464 125.352 48.608 119.256 44.48 111.48C40.352 103.704 38.192 94.776 38 84.696C38.192 74.616 40.352 65.688 44.48 57.912C48.608 50.136 54.464 44.04 62.048 39.624C69.632 35.208 78.464 33 88.544 33C98.624 33 107.408 35.208 114.896 39.624C122.48 44.04 128.336 50.184 132.464 58.056C136.688 65.832 138.896 74.712 139.088 84.696C138.896 94.68 136.688 103.608 132.464 111.48C128.336 119.256 122.48 125.352 114.896 129.768C107.408 134.184 98.624 136.392 88.544 136.392ZM88.544 124.152C96.224 124.152 102.896 122.424 108.56 118.968C114.224 115.512 118.544 110.808 121.52 104.856C124.496 98.904 125.984 92.184 125.984 84.696C125.984 77.208 124.496 70.488 121.52 64.536C118.544 58.584 114.224 53.88 108.56 50.424C102.896 46.968 96.224 45.24 88.544 45.24C80.768 45.24 74.048 46.968 68.384 50.424C62.816 53.88 58.544 58.584 55.568 64.536C52.592 70.488 51.104 77.208 51.104 84.696C51.104 92.184 52.592 98.904 55.568 104.856C58.544 110.808 62.816 115.512 68.384 118.968C74.048 122.424 80.768 124.152 88.544 124.152Z" fill="#958B90"/>
<path d="M163.53 135.672C161.706 135.672 160.17 135.048 158.922 133.8C157.674 132.552 157.05 131.016 157.05 129.192V67.416C157.05 65.592 157.674 64.056 158.922 62.808C160.17 61.464 161.706 60.792 163.53 60.792C165.354 60.792 166.89 61.464 168.138 62.808C169.482 64.056 170.154 65.592 170.154 67.416V73.32C173.802 69.288 177.738 66.072 181.962 63.672C186.186 61.272 191.178 60.072 196.938 60.072C202.218 60.072 206.778 61.32 210.618 63.816C214.554 66.312 217.53 69.72 219.546 74.04C221.658 78.36 222.714 83.112 222.714 88.296V129.192C222.714 131.016 222.042 132.552 220.698 133.8C219.45 135.048 217.914 135.672 216.09 135.672C214.266 135.672 212.73 135.048 211.482 133.8C210.234 132.552 209.61 131.016 209.61 129.192V89.736C209.61 78.024 204.33 72.168 193.77 72.168C188.97 72.168 184.65 73.416 180.81 75.912C177.066 78.408 173.514 81.768 170.154 85.992V129.192C170.154 131.016 169.482 132.552 168.138 133.8C166.89 135.048 165.354 135.672 163.53 135.672Z" fill="#958B90"/>
<path d="M277.632 136.392C265.92 136.392 256.752 133.08 250.128 126.456C243.6 119.736 240.336 110.328 240.336 98.232C240.336 91.416 241.584 85.128 244.08 79.368C246.576 73.608 250.416 68.952 255.6 65.4C260.784 61.848 267.168 60.072 274.752 60.072C281.856 60.072 288 61.752 293.184 65.112C298.368 68.376 302.304 72.792 304.992 78.36C307.68 83.832 309.024 89.832 309.024 96.36C309.024 98.184 308.4 99.72 307.152 100.968C306 102.216 304.416 102.84 302.4 102.84H253.584C254.352 109.56 256.848 114.792 261.072 118.536C265.296 122.28 271.2 124.152 278.784 124.152C282.816 124.152 286.32 123.768 289.296 123C292.368 122.232 295.344 121.128 298.224 119.688C298.992 119.304 299.856 119.112 300.816 119.112C302.352 119.112 303.696 119.64 304.848 120.696C306 121.752 306.576 123.096 306.576 124.728C306.576 126.84 305.328 128.616 302.832 130.056C299.088 132.168 295.392 133.752 291.744 134.808C288.096 135.864 283.392 136.392 277.632 136.392ZM296.064 92.184C295.776 87.48 294.528 83.544 292.32 80.376C290.208 77.208 287.568 74.904 284.4 73.464C281.232 71.928 278.016 71.16 274.752 71.16C271.488 71.16 268.272 71.928 265.104 73.464C261.936 74.904 259.296 77.208 257.184 80.376C255.072 83.544 253.872 87.48 253.584 92.184H296.064Z" fill="#958B90"/>
<path d="M330.106 134.952C327.802 134.952 325.834 134.136 324.202 132.504C322.57 130.872 321.754 128.904 321.754 126.6C321.754 124.488 322.33 122.712 323.482 121.272L383.674 46.968H328.234C326.506 46.968 325.018 46.392 323.77 45.24C322.618 43.992 322.042 42.504 322.042 40.776C322.042 39.048 322.618 37.56 323.77 36.312C325.018 35.064 326.506 34.44 328.234 34.44H390.73C393.418 34.44 395.53 35.304 397.066 37.032C398.698 38.76 399.514 40.872 399.514 43.368C399.514 44.328 399.274 45.336 398.794 46.392C398.41 47.448 397.882 48.36 397.21 49.128L337.738 122.712H394.186C395.914 122.712 397.354 123.336 398.506 124.584C399.754 125.736 400.378 127.176 400.378 128.904C400.378 130.632 399.754 132.072 398.506 133.224C397.354 134.376 395.914 134.952 394.186 134.952H330.106Z" fill="#CFC1B4"/>
<path d="M451.022 136.392C439.31 136.392 430.142 133.08 423.518 126.456C416.99 119.736 413.726 110.328 413.726 98.232C413.726 91.416 414.974 85.128 417.47 79.368C419.966 73.608 423.806 68.952 428.99 65.4C434.174 61.848 440.558 60.072 448.142 60.072C455.246 60.072 461.39 61.752 466.574 65.112C471.758 68.376 475.694 72.792 478.382 78.36C481.07 83.832 482.414 89.832 482.414 96.36C482.414 98.184 481.79 99.72 480.542 100.968C479.39 102.216 477.806 102.84 475.79 102.84H426.974C427.742 109.56 430.238 114.792 434.462 118.536C438.686 122.28 444.59 124.152 452.174 124.152C456.206 124.152 459.71 123.768 462.686 123C465.758 122.232 468.734 121.128 471.614 119.688C472.382 119.304 473.246 119.112 474.206 119.112C475.742 119.112 477.086 119.64 478.238 120.696C479.39 121.752 479.966 123.096 479.966 124.728C479.966 126.84 478.718 128.616 476.222 130.056C472.478 132.168 468.782 133.752 465.134 134.808C461.486 135.864 456.782 136.392 451.022 136.392ZM469.454 92.184C469.166 87.48 467.918 83.544 465.71 80.376C463.598 77.208 460.958 74.904 457.79 73.464C454.622 71.928 451.406 71.16 448.142 71.16C444.878 71.16 441.662 71.928 438.494 73.464C435.326 74.904 432.686 77.208 430.574 80.376C428.462 83.544 427.262 87.48 426.974 92.184H469.454Z" fill="#CFC1B4"/>
<path d="M506.233 135.672C504.409 135.672 502.873 135.048 501.625 133.8C500.377 132.552 499.753 131.016 499.753 129.192V67.416C499.753 65.592 500.377 64.056 501.625 62.808C502.873 61.464 504.409 60.792 506.233 60.792C508.057 60.792 509.593 61.464 510.841 62.808C512.185 64.056 512.857 65.592 512.857 67.416V73.608C519.577 64.584 527.113 60.072 535.465 60.072H536.185C538.009 60.072 539.497 60.696 540.649 61.944C541.897 63.192 542.521 64.728 542.521 66.552C542.521 68.376 541.897 69.864 540.649 71.016C539.401 72.168 537.817 72.744 535.897 72.744H535.177C530.569 72.744 526.345 73.896 522.505 76.2C518.665 78.408 515.449 81.48 512.857 85.416V129.192C512.857 131.016 512.185 132.552 510.841 133.8C509.593 135.048 508.057 135.672 506.233 135.672Z" fill="#CFC1B4"/>
<path d="M585.169 136.392C577.777 136.392 571.297 134.808 565.729 131.64C560.161 128.472 555.84 124.008 552.768 118.248C549.792 112.392 548.304 105.72 548.304 98.232C548.304 90.744 549.792 84.12 552.768 78.36C555.84 72.504 560.161 67.992 565.729 64.824C571.297 61.656 577.777 60.072 585.169 60.072C592.465 60.072 598.897 61.656 604.465 64.824C610.033 67.992 614.353 72.504 617.424 78.36C620.496 84.12 622.033 90.744 622.033 98.232C622.033 105.72 620.496 112.392 617.424 118.248C614.353 124.008 610.033 128.472 604.465 131.64C598.897 134.808 592.465 136.392 585.169 136.392ZM585.169 124.44C589.105 124.44 592.849 123.528 596.401 121.704C600.049 119.88 603.025 117 605.329 113.064C607.729 109.128 608.929 104.136 608.929 98.088C608.929 92.136 607.729 87.192 605.329 83.256C603.025 79.32 600.049 76.488 596.401 74.76C592.849 72.936 589.105 72.024 585.169 72.024C581.137 72.024 577.296 72.936 573.648 74.76C570.096 76.488 567.169 79.32 564.865 83.256C562.561 87.192 561.409 92.136 561.409 98.088C561.409 104.136 562.561 109.128 564.865 113.064C567.169 117 570.096 119.88 573.648 121.704C577.296 123.528 581.137 124.44 585.169 124.44Z" fill="#CFC1B4"/>
<rect x="116.08" y="161.952" width="20" height="6" rx="3" fill="#958B90"/>
<rect x="139.08" y="161.952" width="20" height="6" rx="3" fill="#958B90"/>
<rect x="162.08" y="161.952" width="20" height="6" rx="3" fill="#958B90"/>
<rect x="208.08" y="161.952" width="20" height="6" rx="3" fill="#958B90"/>
<rect x="295.08" y="161.952" width="20" height="6" rx="3" fill="#958B90"/>
<rect x="318.08" y="161.952" width="20" height="6" rx="3" fill="#958B90"/>
<rect x="423.08" y="161.952" width="20" height="6" rx="3" fill="#958B90"/>
<rect x="478.08" y="161.952" width="20" height="6" rx="3" fill="#958B90"/>
<rect x="501.08" y="161.952" width="20" height="6" rx="3" fill="#958B90"/>
<rect x="524.08" y="161.952" width="20" height="6" rx="3" fill="#958B90"/>
<rect x="231.08" y="161.952" width="6" height="6" rx="3" fill="#958B90"/>
<rect x="263.08" y="161.952" width="6" height="6" rx="3" fill="#958B90"/>
<rect x="341.08" y="161.952" width="6" height="6" rx="3" fill="#958B90"/>
<rect x="350.08" y="161.952" width="6" height="6" rx="3" fill="#958B90"/>
<rect x="382.08" y="161.952" width="6" height="6" rx="3" fill="#958B90"/>
<rect x="414.08" y="161.952" width="6" height="6" rx="3" fill="#958B90"/>
<rect x="446.08" y="161.952" width="6" height="6" rx="3" fill="#958B90"/>
</svg>
